<svg xmlns="http://www.w3.org/2000/svg" version="1.1" xmlns:xlink="http://www.w3.org/1999/xlink" xmlns:svgjs="http://svgjs.dev/svgjs" width="2000" height="398" viewBox="0 0 2000 398"><g transform="matrix(1,0,0,1,-1.2121212121212466,-0.8834773468005039)"><svg viewBox="0 0 396 79" data-background-color="#ffffff" preserveAspectRatio="xMidYMid meet" height="398" width="2000" xmlns="http://www.w3.org/2000/svg" xmlns:xlink="http://www.w3.org/1999/xlink"><g id="tight-bounds" transform="matrix(1,0,0,1,0.2400000000000091,0.17536359396291346)"><svg viewBox="0 0 395.52 78.64927281207417" height="78.64927281207417" width="395.52"><g><svg viewBox="0 0 515.5493230084899 102.51714035541785" height="78.64927281207417" width="395.52"><g transform="matrix(1,0,0,1,0,14.16843256721043)"><svg viewBox="0 0 395.52 74.18027522099699" height="74.18027522099699" width="395.52"><g id="textblocktransform"><svg viewBox="0 0 395.52 74.18027522099699" height="74.18027522099699" width="395.52" id="textblock"><g><svg viewBox="0 0 395.52 74.18027522099699" height="74.18027522099699" width="395.52"><g transform="matrix(1,0,0,1,0,0)"><svg width="395.52" viewBox="2.08 -38.28 267.87 50.24" height="74.18027522099699" data-palette-color="#4d7e3e"><path d="M15.58-21.51L15.58-21.51Q14.33-22.75 11.5-22.75 8.67-22.75 7.67-20.7L7.67-20.7Q7.4-20.12 7.4-19.37 7.4-18.63 7.98-17.93 8.57-17.24 9.5-16.61 10.42-15.99 11.58-15.41 12.74-14.82 13.99-14.14 15.23-13.45 16.63-12.7L16.63-12.7Q21.73-9.91 21.73-6.53 21.73-3.15 19.09-1.33 16.46 0.49 12.1 0.49 7.74 0.49 4.91-1.07 2.08-2.64 2.08-5.1L2.08-5.1Q2.08-6.45 2.97-7.37 3.86-8.3 5.24-8.3 6.62-8.3 7.52-7.43 8.42-6.57 8.42-5.37 8.42-4.17 7.59-3.34L7.59-3.34Q9.55-2.22 12.44-2.22 15.33-2.22 16.5-3.56L16.5-3.56Q16.99-4.1 16.99-4.96L16.99-4.96Q16.99-6.98 12.5-9.18L12.5-9.18Q9.38-10.72 7.81-11.6L7.81-11.6Q2.81-14.43 2.81-18.43L2.81-18.43Q2.81-21.51 5.36-23.36 7.91-25.22 11.87-25.22 15.82-25.22 18.52-23.74 21.22-22.27 21.22-19.92L21.22-19.92Q21.22-18.55 20.56-17.9L20.56-17.9Q19.41-16.75 18.36-16.75L18.36-16.75Q16.65-16.75 15.78-17.61 14.92-18.48 14.92-19.6 14.92-20.73 15.58-21.51ZM40.92-21.58L40.92-21.58Q36.91-21.58 34.42-19.09L34.42-19.09 34.42-5.25Q34.42-3.74 34.91-3.34L34.91-3.34Q35.76-2.69 38.13-2.69L38.13-2.69 38.13 0 25.73 0 25.73-2.69Q27.83-2.69 28.37-3.11 28.9-3.54 29.03-4.03 29.15-4.52 29.15-5.25L29.15-5.25 29.15-31.74Q29.15-33.5 28.84-34.03 28.54-34.57 27.17-34.57L27.17-34.57 25.68-34.57 25.68-37.26Q27.98-37.26 29.28-37.61 30.59-37.96 31.14-38.12 31.69-38.28 32.32-38.28L32.32-38.28Q33.62-38.28 34.02-37.54 34.42-36.79 34.42-35.16L34.42-35.16 34.42-21.97Q36.94-24.17 40.48-24.98L40.48-24.98Q41.62-25.24 42.72-25.24L42.72-25.24Q50.63-25.24 50.63-14.75L50.63-14.75 50.63-5.3Q50.63-3.69 51.1-3.19 51.56-2.69 53.64-2.69L53.64-2.69 53.64 0 42.09 0 42.09-2.69Q44.31-2.69 44.76-3.14 45.21-3.59 45.29-4.08 45.36-4.57 45.36-5.3L45.36-5.3 45.36-14.43Q45.36-17.82 44.72-19.09L44.72-19.09Q43.48-21.58 40.92-21.58ZM57.25-12.5L57.25-12.5Q57.25-15.43 58.16-17.91 59.08-20.39 60.71-22.02L60.71-22.02Q63.94-25.24 69.28-25.24L69.28-25.24Q74.68-25.24 77.99-22.01 81.29-18.77 81.29-12.83 81.29-6.88 78.24-3.2 75.19 0.49 69.28 0.49L69.28 0.49Q63.37 0.49 60.31-3.09 57.25-6.67 57.25-12.5ZM69.28-2.44L69.28-2.44Q72.11-2.44 73.88-5.03 75.65-7.62 75.65-12.3L75.65-12.3Q75.65-19.85 71.85-21.73L71.85-21.73Q70.67-22.31 69.28-22.31L69.28-22.31Q64.77-22.31 63.4-16.85L63.4-16.85Q62.91-14.97 62.91-12.45L62.91-12.45Q62.91-7.62 64.68-5.03 66.45-2.44 69.28-2.44ZM100.65 0.49L100.65 0.49Q96.65 0.49 93.82-2.25L93.82-2.25 93.82 6.47Q93.82 8.35 94.63 8.81 95.45 9.28 98.77 9.28L98.77 9.28 98.77 11.96 85.12 11.96 85.12 9.28Q87.22 9.28 87.76 8.85 88.3 8.42 88.42 7.93 88.54 7.45 88.54 6.71L88.54 6.71 88.54-18.68Q88.54-20.43 88.24-20.97 87.93-21.51 86.56-21.51L86.56-21.51 84.83-21.51 84.83-24.19Q87.25-24.19 88.62-24.55 89.98-24.9 90.57-25.06 91.15-25.22 91.81-25.22L91.81-25.22Q93.11-25.22 93.51-24.48 93.91-23.73 93.91-22.09L93.91-22.09 93.91-22.02Q96.65-25.24 101.37-25.24 106.1-25.24 109-22.06 111.91-18.87 111.91-12.82 111.91-6.76 108.89-3.14 105.88 0.49 100.65 0.49ZM93.69-12.11Q93.69-7.62 95.43-5.03 97.16-2.44 100.07-2.44L100.07-2.44Q102.95-2.44 104.58-5.09 106.22-7.74 106.22-12.16L106.22-12.16Q106.22-19.21 102.8-21.48L102.8-21.48Q101.58-22.31 99.92-22.31 98.26-22.31 97.11-21.53 95.96-20.75 95.21-19.38L95.21-19.38Q93.69-16.6 93.69-12.11ZM116.96-10.94L116.96-14.92 135.39-14.92 135.39-10.94 116.96-10.94ZM161.63-16.8L161.63-5.83Q161.63-2.93 162.78-2.93L162.78-2.93Q163.88-2.93 164.39-3.67 164.9-4.42 164.9-6.37L164.9-6.37 167.47-6.37Q167.49-6.05 167.49-5.37L167.49-5.37Q167.49-3.17 166.39-1.56L166.39-1.56Q165.05 0.49 162.12 0.49L162.12 0.49Q160.22 0.49 158.87-0.59 157.53-1.66 157.02-3.42L157.02-3.42Q153.48 0.49 148.06 0.49L148.06 0.49Q145.08 0.49 142.87-1.26 140.66-3 140.66-6.13L140.66-6.13Q140.66-11.55 148.67-14.14L148.67-14.14Q153.75-15.75 154.75-16.37 155.75-16.99 156.05-17.64 156.36-18.29 156.36-19.09L156.36-19.09Q156.36-20.53 154.94-21.5 153.53-22.46 151.26-22.46 148.99-22.46 147.25-21.24L147.25-21.24Q148.47-20.34 148.47-18.92 148.47-17.5 147.53-16.65 146.59-15.8 145.26-15.8 143.93-15.8 143.07-16.6 142.2-17.41 142.2-18.85L142.2-18.85Q142.2-21.7 145.08-23.47 147.96-25.24 152.09-25.24L152.09-25.24Q159.46-25.24 161.1-20.46L161.1-20.46Q161.63-18.87 161.63-16.8L161.63-16.8ZM150.87-11.91Q148.72-10.99 147.64-9.53 146.57-8.08 146.57-6.37 146.57-4.66 147.5-3.78 148.43-2.91 149.82-2.91L149.82-2.91Q152.65-2.91 154.5-4.9 156.36-6.88 156.36-10.45L156.36-10.45 156.36-14.21Q154.8-13.4 153.05-12.74 151.31-12.08 150.87-11.91L150.87-11.91ZM169.86-10.94L169.86-14.92 188.29-14.92 188.29-10.94 169.86-10.94ZM203.4 0.49L203.4 0.49Q195.71 0.49 195.71-8.06L195.71-8.06 195.71-20.26Q195.71-21.22 195.48-21.52 195.25-21.83 194.49-21.83L194.49-21.83 192.49-21.83 192.49-24.76 193.39-24.76Q195.25-24.76 196.11-25.93 196.98-27.1 197.05-29.79L197.05-29.79 197.08-31.96 200.98-31.96 200.98-24.76 208.48-24.76 208.48-21.83 200.98-21.83 200.98-8.13Q200.98-3.59 203.08-2.71L203.08-2.71Q203.67-2.47 204.25-2.47L204.25-2.47Q206.82-2.47 207.6-6.69L207.6-6.69 210.43-6.69Q210.19-1.68 206.26-0.05L206.26-0.05Q204.99 0.49 203.4 0.49ZM213.85-12.5L213.85-12.5Q213.85-15.43 214.76-17.91 215.68-20.39 217.31-22.02L217.31-22.02Q220.54-25.24 225.88-25.24L225.88-25.24Q231.28-25.24 234.59-22.01 237.9-18.77 237.9-12.83 237.9-6.88 234.84-3.2 231.79 0.49 225.88 0.49L225.88 0.49Q219.98 0.49 216.91-3.09 213.85-6.67 213.85-12.5ZM225.88-2.44L225.88-2.44Q228.72-2.44 230.49-5.03 232.26-7.62 232.26-12.3L232.26-12.3Q232.26-19.85 228.45-21.73L228.45-21.73Q227.27-22.31 225.88-22.31L225.88-22.31Q221.37-22.31 220-16.85L220-16.85Q219.51-14.97 219.51-12.45L219.51-12.45Q219.51-7.62 221.28-5.03 223.05-2.44 225.88-2.44ZM257.23-21.58L257.23-21.58Q253.22-21.58 250.73-19.09L250.73-19.09 250.73-5.25Q250.73-3.74 251.22-3.34L251.22-3.34Q252.08-2.69 254.45-2.69L254.45-2.69 254.45 0 242.04 0 242.04-2.69Q244.14-2.69 244.68-3.11 245.22-3.54 245.34-4.03 245.46-4.52 245.46-5.25L245.46-5.25 245.46-18.55Q245.46-20.31 245.16-20.85 244.85-21.39 243.48-21.39L243.48-21.39 241.99-21.39 241.99-24.07Q244.29-24.07 245.6-24.43 246.9-24.78 247.45-24.94 248-25.1 248.63-25.1L248.63-25.1Q249.93-25.1 250.33-24.35 250.73-23.61 250.73-21.97L250.73-21.97Q253.35-24.17 256.79-24.95L256.79-24.95Q257.94-25.22 259.04-25.22L259.04-25.22Q266.95-25.22 266.95-14.75L266.95-14.75 266.95-5.3Q266.95-3.69 267.41-3.19 267.87-2.69 269.95-2.69L269.95-2.69 269.95 0 258.4 0 258.4-2.69Q260.62-2.69 261.07-3.14 261.53-3.59 261.6-4.08 261.67-4.57 261.67-5.3L261.67-5.3 261.67-14.43Q261.67-17.82 261.04-19.09L261.04-19.09Q259.79-21.58 257.23-21.58Z" opacity="1" transform="matrix(1,0,0,1,0,0)" fill="#4d7e3e" class="wordmark-text-0" data-fill-palette-color="primary" id="text-0"></path></svg></g></svg></g></svg></g></svg></g><g transform="matrix(1,0,0,1,413.0321826530721,0)"><svg viewBox="0 0 102.51714035541785 102.51714035541785" height="102.51714035541785" width="102.51714035541785"><g data-palette-color="#4d7e3e"><rect width="28.021351697147548" height="102.51714035541785" fill="#4d7e3e" stroke="transparent" data-fill-palette-color="accent" x="0" fill-opacity="1"></rect><rect width="28.021351697147548" height="102.51714035541785" fill="#4d7e3e" stroke="transparent" data-fill-palette-color="accent" x="34.17238011847262" fill-opacity="0.75"></rect><rect width="28.021351697147548" height="102.51714035541785" fill="#4d7e3e" stroke="transparent" data-fill-palette-color="accent" x="68.34476023694523" fill-opacity="0.5"></rect></g></svg></g></svg></g><defs></defs></svg><rect width="395.52" height="78.64927281207417" fill="none" stroke="none" visibility="hidden"></rect></g></svg></g></svg>